<?xml version="1.0" standalone="no"?><!DOCTYPE svg PUBLIC "-//W3C//DTD SVG 1.1//EN" "http://www.w3.org/Graphics/SVG/1.1/DTD/svg11.dtd"><svg t="1701761893973" class="icon" viewBox="0 0 1024 1024" version="1.1" xmlns="http://www.w3.org/2000/svg" p-id="4249" xmlns:xlink="http://www.w3.org/1999/xlink" width="200" height="200"><path d="M865.792 322.432l-215.466667-226.645333a31.701333 31.701333 0 0 0-23.04-9.941334h-8.746666a5.76 5.76 0 0 1-1.066667-0.256A4.522667 4.522667 0 0 0 616.106667 85.333333a4.778667 4.778667 0 0 0-1.408 0.256 5.717333 5.717333 0 0 1-1.066667 0.256H344.32c-105.685333 0-194.986667 88.106667-194.986667 192.426667v177.450667c0 17.749333 14.293333 32.213333 31.914667 32.213333a32.085333 32.085333 0 0 0 31.872-32.213333V278.186667c0-69.333333 60.074667-127.957333 131.2-127.957334h239.914667v92.288c0 78.592 63.274667 142.634667 141.098666 142.805334a32.042667 32.042667 0 0 0 31.914667-32.128 32.042667 32.042667 0 0 0-31.786667-32.298667 78.08 78.08 0 0 1-77.44-78.378667V186.410667l162.858667 171.264v380.8c0 72.32-59.221333 135.765333-126.72 135.765333H344.32c-73.557333 0-131.2-59.648-131.2-135.765333v-107.648a32.085333 32.085333 0 0 0-31.872-32.213334 32.085333 32.085333 0 0 0-31.914667 32.213334v107.648C149.333333 850.773333 235.008 938.666667 344.32 938.666667h339.84c103.253333 0 190.506667-91.648 190.506667-200.192V344.746667a32.426667 32.426667 0 0 0-8.874667-22.314667zM378.453333 699.946667h229.632a32.085333 32.085333 0 0 0 31.872-32.213334 32.085333 32.085333 0 0 0-31.872-32.213333H378.453333a32.085333 32.085333 0 0 0-31.914666 32.213333c0 17.792 14.293333 32.213333 31.914666 32.213334z m142.762667-212.736H378.453333a32.085333 32.085333 0 0 1-31.914666-32.213334c0-17.749333 14.293333-32.213333 31.914666-32.213333h142.762667c17.621333 0 31.914667 14.464 31.914667 32.213333a32.085333 32.085333 0 0 1-31.914667 32.213334z" fill="#200E32" p-id="4250"></path></svg>